<svg width="57" height="62" viewBox="0 0 57 62" fill="none" xmlns="http://www.w3.org/2000/svg">
<path d="M37.1817 0.0222486C37.7103 0.0222709 38.221 0.213706 38.6194 0.561152C39.0178 0.908598 39.2769 1.38855 39.3487 1.91225L39.3692 2.20975L39.3662 4.39433H41.5537C43.2942 4.39433 44.9634 5.08574 46.1941 6.31644C47.4248 7.54715 48.1162 9.21635 48.1162 10.9568V27.2522C45.9338 26.2149 43.4541 25.9854 41.1183 26.6046C38.7825 27.2238 36.7421 28.6515 35.3601 30.6337C33.9781 32.616 33.344 35.0242 33.5708 37.43C33.7975 39.8358 34.8703 42.0831 36.5983 43.7722H35.7875C34.7258 43.7722 33.6744 43.9814 32.6935 44.3877C31.7126 44.794 30.8213 45.3895 30.0705 46.1403C29.3198 46.891 28.7242 47.7823 28.3179 48.7632C27.9116 49.7442 27.7025 50.7955 27.7025 51.8572V52.1577C27.7025 54.3189 28.3296 56.4831 29.6508 58.3702H6.56542C4.82493 58.3702 3.15574 57.6788 1.92503 56.4481C0.694321 55.2173 0.00291646 53.5481 0.00291646 51.8077L0 10.9597C0 9.21927 0.691404 7.55007 1.92211 6.31936C3.15282 5.08865 4.82202 4.39725 6.5625 4.39725L8.74125 4.39433V2.20975C8.73557 1.65157 8.9435 1.11233 9.32246 0.702464C9.70141 0.292596 10.2227 0.0431063 10.7796 0.00508402C11.3366 -0.0329382 11.8869 0.143384 12.3181 0.497944C12.7492 0.852504 13.0285 1.35847 13.0987 1.91225L13.1192 2.20975L13.1162 4.39433H21.8692V2.20975C21.8635 1.65157 22.0714 1.11233 22.4504 0.702464C22.8293 0.292596 23.3506 0.0431063 23.9076 0.00508402C24.4645 -0.0329382 25.0148 0.143384 25.446 0.497944C25.8771 0.852504 26.1564 1.35847 26.2267 1.91225L26.2471 2.20975L26.2442 4.39433H34.9883V2.20975C34.9883 1.62959 35.2188 1.07319 35.629 0.662952C36.0393 0.252716 36.5957 0.0222486 37.1758 0.0222486H37.1817ZM22.5925 40.8556H10.9317L10.6342 40.876C10.1106 40.948 9.6308 41.2072 9.28349 41.6056C8.93618 42.0039 8.74484 42.5146 8.74484 43.0431C8.74484 43.5716 8.93618 44.0822 9.28349 44.4806C9.6308 44.879 10.1106 45.1381 10.6342 45.2102L10.9317 45.2306H22.5925L22.89 45.2102C23.4136 45.1381 23.8934 44.879 24.2407 44.4806C24.588 44.0822 24.7793 43.5716 24.7793 43.0431C24.7793 42.5146 24.588 42.0039 24.2407 41.6056C23.8934 41.2072 23.4136 40.948 22.89 40.876L22.5925 40.8556V40.8556ZM37.1758 17.5222H10.9317L10.6342 17.5427C10.1106 17.6147 9.6308 17.8739 9.28349 18.2722C8.93618 18.6706 8.74484 19.1812 8.74484 19.7097C8.74484 20.2383 8.93618 20.7489 9.28349 21.1473C9.6308 21.5456 10.1106 21.8048 10.6342 21.8768L10.9317 21.8972H37.1758L37.4733 21.8768C37.9969 21.8048 38.4767 21.5456 38.824 21.1473C39.1713 20.7489 39.3627 20.2383 39.3627 19.7097C39.3627 19.1812 39.1713 18.6706 38.824 18.2722C38.4767 17.8739 37.9969 17.6147 37.4733 17.5427L37.1758 17.5222ZM8.74417 31.3764C8.74417 32.5839 9.72417 33.5639 10.9317 33.5639H28.4317C29.0118 33.5639 29.5682 33.3334 29.9785 32.9232C30.3887 32.513 30.6192 31.9566 30.6192 31.3764C30.6192 30.7963 30.3887 30.2399 29.9785 29.8296C29.5682 29.4194 29.0118 29.1889 28.4317 29.1889H10.9317C10.3515 29.1889 9.79511 29.4194 9.38487 29.8296C8.97463 30.2399 8.74417 30.7963 8.74417 31.3764V31.3764ZM51.0358 36.4806C51.0358 38.4145 50.2676 40.2691 48.9001 41.6366C47.5327 43.004 45.678 43.7722 43.7442 43.7722C41.8103 43.7722 39.9556 43.004 38.5882 41.6366C37.2207 40.2691 36.4525 38.4145 36.4525 36.4806C36.4525 34.5467 37.2207 32.692 38.5882 31.3246C39.9556 29.9571 41.8103 29.1889 43.7442 29.1889C45.678 29.1889 47.5327 29.9571 48.9001 31.3246C50.2676 32.692 51.0358 34.5467 51.0358 36.4806ZM56.8692 52.1577C56.8692 56.696 53.1183 61.2722 43.7442 61.2722C34.37 61.2722 30.6192 56.7135 30.6192 52.1577V51.8572C30.6192 48.9989 32.935 46.6889 35.7904 46.6889H51.6979C54.5562 46.6889 56.8692 49.0018 56.8692 51.8572V52.1577Z" fill="#ECECEC"/>
</svg>
