<svg width="64" height="64" viewBox="0 0 64 64" fill="none" xmlns="http://www.w3.org/2000/svg">
<path d="M18.49 34.333V32.736L18.969 32.516L32 38.486L62 24.743L32 11L2 24.743L15.63 30.986C15.5528 31.1869 15.5115 31.3998 15.508 31.615V32.967L13.128 31.877V36.497C13.128 37.865 13.495 39.093 14.125 40.197V50.468C14.125 53.843 19.875 53.843 19.875 50.468V44.912C30.727 49.733 50.871 46.936 50.871 36.496V31.876L32 40.521L18.49 34.333V34.333ZM18.875 50.469C18.875 50.826 18.643 51.147 18.277 51.373V38.696L18.08 38.83V51.482L17.49 51.663V39.061L17.295 39.096V51.692H16.705V39.096L16.508 39.061V51.664L15.92 51.483V38.83L15.723 38.696V51.373C15.358 51.146 15.125 50.826 15.125 50.469V38.486C15.125 37.34 15.713 36.384 16.508 36.095V31.615C16.508 31.31 16.66 31.082 16.869 30.987L31.869 24.114C31.9203 24.0897 31.9762 24.0764 32.033 24.075C32.511 24.075 32.667 25.125 32.131 25.371L17.49 32.077V36.095C18.286 36.382 18.875 37.338 18.875 38.486V50.469" fill="#ECECEC"/>
</svg>
