<svg width="70" height="70" viewBox="0 0 70 70" fill="none" xmlns="http://www.w3.org/2000/svg">
<path d="M47.3667 33.5708L51.9458 28.9917L41.0083 18.0542L36.4292 22.6333L24.3542 10.5875C22.0792 8.3125 18.375 8.3125 16.1 10.5875L10.5583 16.1292C8.28333 18.4042 8.28333 22.1083 10.5583 24.3833L22.6042 36.4292L8.75 50.3125V61.25H19.6875L33.5708 47.3667L45.6167 59.4125C48.3875 62.1833 52.1208 61.1625 53.8708 59.4125L59.4125 53.8708C61.6875 51.5958 61.6875 47.8917 59.4125 45.6167L47.3667 33.5708V33.5708ZM26.775 32.2875L14.7 20.2417L20.2125 14.7L23.9167 18.4042L20.475 21.875L24.5875 25.9875L28.0583 22.5167L32.2875 26.7458L26.775 32.2875V32.2875ZM49.7583 55.3L37.7125 43.2542L43.2542 37.7125L47.4833 41.9417L44.0125 45.4125L48.125 49.525L51.5958 46.0542L55.3 49.7583L49.7583 55.3V55.3ZM60.4042 20.5333C60.6746 20.2635 60.8891 19.943 61.0354 19.5902C61.1818 19.2373 61.2571 18.8591 61.2571 18.4771C61.2571 18.0951 61.1818 17.7169 61.0354 17.364C60.8891 17.0112 60.6746 16.6907 60.4042 16.4208L53.5792 9.59583C52.2083 8.225 50.3125 8.75 49.4667 9.59583L44.1292 14.9333L55.0667 25.8708L60.4042 20.5333V20.5333Z" fill="#13588B"/>
</svg>
