<svg id="Calque_1" data-name="Calque 1" xmlns="http://www.w3.org/2000/svg" viewBox="0 0 80 80"><defs><style>.cls-1{fill:#fff;}</style></defs><circle class="cls-1" cx="40" cy="40" r="40"/><path d="M52.42,24.87a2.75,2.75,0,1,0,2.75,2.75A2.75,2.75,0,0,0,52.42,24.87Z" transform="translate(0)"/><path d="M40.19,28.39A11.55,11.55,0,1,0,51.74,39.94,11.57,11.57,0,0,0,40.19,28.39Zm0,19a7.4,7.4,0,1,1,7.4-7.4A7.41,7.41,0,0,1,40.19,47.34Z" transform="translate(0)"/><path d="M49.36,63.39H30.64A14.1,14.1,0,0,1,16.55,49.31V30.58A14.1,14.1,0,0,1,30.64,16.49H49.36A14.1,14.1,0,0,1,63.45,30.58V49.31A14.1,14.1,0,0,1,49.36,63.39ZM30.64,20.91A9.69,9.69,0,0,0,21,30.58V49.31A9.69,9.69,0,0,0,30.64,59H49.36A9.69,9.69,0,0,0,59,49.31V30.58a9.69,9.69,0,0,0-9.68-9.67Z" transform="translate(0)"/></svg>