<svg width="54" height="70" viewBox="0 0 54 70" fill="none" xmlns="http://www.w3.org/2000/svg">
<path d="M32.6569 0H9.5C7.17936 0 4.95376 0.921873 3.31282 2.56282C1.67187 4.20376 0.75 6.42936 0.75 8.75V61.25C0.75 63.5706 1.67187 65.7962 3.31282 67.4372C4.95376 69.0781 7.17936 70 9.5 70H44.5C46.8206 70 49.0462 69.0781 50.6872 67.4372C52.3281 65.7962 53.25 63.5706 53.25 61.25V20.5931C53.2498 19.4329 52.7887 18.3203 51.9681 17.5L35.75 1.28188C34.9297 0.461347 33.8171 0.000247789 32.6569 0V0ZM33.5625 15.3125V6.5625L46.6875 19.6875H37.9375C36.7772 19.6875 35.6644 19.2266 34.8439 18.4061C34.0234 17.5856 33.5625 16.4728 33.5625 15.3125ZM21.0762 33.4512C21.2796 33.2479 21.5211 33.0865 21.7868 32.9765C22.0526 32.8664 22.3374 32.8097 22.625 32.8097C22.9126 32.8097 23.1974 32.8664 23.4632 32.9765C23.7289 33.0865 23.9704 33.2479 24.1738 33.4512C24.3771 33.6546 24.5385 33.8961 24.6485 34.1618C24.7586 34.4276 24.8153 34.7124 24.8153 35C24.8153 35.2876 24.7586 35.5724 24.6485 35.8382C24.5385 36.1039 24.3771 36.3454 24.1738 36.5488L16.9681 43.75L24.1738 50.9512C24.5845 51.362 24.8153 51.9191 24.8153 52.5C24.8153 53.0809 24.5845 53.638 24.1738 54.0488C23.763 54.4595 23.2059 54.6903 22.625 54.6903C22.0441 54.6903 21.487 54.4595 21.0762 54.0488L12.3262 45.2988C12.1225 45.0956 11.9609 44.8542 11.8506 44.5884C11.7404 44.3226 11.6836 44.0377 11.6836 43.75C11.6836 43.4623 11.7404 43.1774 11.8506 42.9116C11.9609 42.6458 12.1225 42.4044 12.3262 42.2012L21.0762 33.4512V33.4512ZM32.9238 33.4512L41.6738 42.2012C41.8775 42.4044 42.0391 42.6458 42.1494 42.9116C42.2596 43.1774 42.3164 43.4623 42.3164 43.75C42.3164 44.0377 42.2596 44.3226 42.1494 44.5884C42.0391 44.8542 41.8775 45.0956 41.6738 45.2988L32.9238 54.0488C32.513 54.4595 31.9559 54.6903 31.375 54.6903C30.7941 54.6903 30.237 54.4595 29.8262 54.0488C29.4155 53.638 29.1847 53.0809 29.1847 52.5C29.1847 51.9191 29.4155 51.362 29.8262 50.9512L37.0319 43.75L29.8262 36.5488C29.6229 36.3454 29.4615 36.1039 29.3515 35.8382C29.2414 35.5724 29.1847 35.2876 29.1847 35C29.1847 34.7124 29.2414 34.4276 29.3515 34.1618C29.4615 33.8961 29.6229 33.6546 29.8262 33.4512C30.0296 33.2479 30.2711 33.0865 30.5368 32.9765C30.8026 32.8664 31.0874 32.8097 31.375 32.8097C31.6626 32.8097 31.9474 32.8664 32.2132 32.9765C32.4789 33.0865 32.7204 33.2479 32.9238 33.4512V33.4512Z" fill="#ECECEC"/>
</svg>
