<svg width="70" height="70" viewBox="0 0 70 70" fill="none" xmlns="http://www.w3.org/2000/svg">
<path d="M67.2 0H2.8C1.25125 0 0 1.25125 0 2.8V67.2C0 68.7487 1.25125 70 2.8 70H67.2C68.7487 70 70 68.7487 70 67.2V2.8C70 1.25125 68.7487 0 67.2 0ZM35.0962 35.5337L18.2962 49.6212C17.8412 50.0062 17.15 49.6825 17.15 49.0875V43.6012C17.15 43.4 17.2462 43.1987 17.4037 43.0675L27.0113 35L17.4037 26.9325C17.3233 26.869 17.2586 26.7878 17.2146 26.6952C17.1706 26.6027 17.1485 26.5012 17.15 26.3988V20.9125C17.15 20.3175 17.8412 19.9937 18.2962 20.3787L35.0962 34.4575C35.4375 34.7375 35.4375 35.2537 35.0962 35.5337ZM52.85 49.0875C52.85 49.4725 52.5525 49.7875 52.1937 49.7875H36.0062C35.6475 49.7875 35.35 49.4725 35.35 49.0875V44.8875C35.35 44.5025 35.6475 44.1875 36.0062 44.1875H52.1937C52.5525 44.1875 52.85 44.5025 52.85 44.8875V49.0875Z" fill="#90CCF4"/>
</svg>
