<svg width="60" height="60" viewBox="0 0 60 60" fill="none" xmlns="http://www.w3.org/2000/svg">
<path d="M50.4166 15.4166H47.4999V0.833313H12.4999V15.4166H9.58325C7.26261 15.4166 5.03701 16.3385 3.39607 17.9795C1.75512 19.6204 0.833252 21.846 0.833252 24.1666V44.5833C0.833252 46.1304 1.44783 47.6141 2.5418 48.7081C3.63576 49.8021 5.11949 50.4167 6.66659 50.4167H12.4999V59.1667H47.4999V50.4167H53.3333C54.8804 50.4167 56.3641 49.8021 57.458 48.7081C58.552 47.6141 59.1666 46.1304 59.1666 44.5833V24.1666C59.1666 21.846 58.2447 19.6204 56.6038 17.9795C54.9628 16.3385 52.7372 15.4166 50.4166 15.4166ZM18.3333 6.66665H41.6666V15.4166H18.3333V6.66665ZM18.3333 53.3333V41.6667H41.6666V53.3333H18.3333ZM50.4166 30H38.7499V24.1666H50.4166V30Z" fill="#ECECEC"/>
</svg>
