<svg width="60" height="60" viewBox="0 0 60 60" fill="none" xmlns="http://www.w3.org/2000/svg">
<path d="M50.4166 15.4167H47.4999V0.833374H12.4999V15.4167H9.58325C7.26261 15.4167 5.03701 16.3386 3.39607 17.9795C1.75512 19.6205 0.833252 21.8461 0.833252 24.1667V44.5834C0.833252 46.1305 1.44783 47.6142 2.5418 48.7082C3.63576 49.8021 5.11949 50.4167 6.66659 50.4167H12.4999V59.1667H47.4999V50.4167H53.3333C54.8804 50.4167 56.3641 49.8021 57.458 48.7082C58.552 47.6142 59.1666 46.1305 59.1666 44.5834V24.1667C59.1666 21.8461 58.2447 19.6205 56.6038 17.9795C54.9628 16.3386 52.7372 15.4167 50.4166 15.4167ZM18.3333 6.66671H41.6666V15.4167H18.3333V6.66671ZM18.3333 53.3334V41.6667H41.6666V53.3334H18.3333ZM50.4166 30H38.7499V24.1667H50.4166V30Z" fill="#90CCF4"/>
</svg>
