<svg id="Calque_1" data-name="Calque 1" xmlns="http://www.w3.org/2000/svg" viewBox="0 0 80 80"><defs><style>.cls-1{fill:#fff;}</style></defs><circle class="cls-1" cx="40" cy="40" r="40"/><path d="M62.1,26.29a17.8,17.8,0,0,1-4.41,1.26c.71-.12,1.75-1.4,2.17-1.92A8.1,8.1,0,0,0,61.32,23c0-.08.07-.17,0-.23a.23.23,0,0,0-.23,0,22.87,22.87,0,0,1-5.23,2,.34.34,0,0,1-.36-.1,5,5,0,0,0-.46-.46,9.44,9.44,0,0,0-2.53-1.56A8.78,8.78,0,0,0,48.61,22a9.15,9.15,0,0,0-3.69,1,9.56,9.56,0,0,0-3,2.43A9.19,9.19,0,0,0,40.17,29a9.66,9.66,0,0,0-.09,3.75c0,.21,0,.24-.18.21-7.19-1.07-13.14-3.64-18-9.15-.21-.23-.32-.23-.49,0C19.31,27,20.34,32.14,23,34.64a12.84,12.84,0,0,0,1.11,1,9.08,9.08,0,0,1-3.47-1c-.21-.13-.32,0-.34.18a5.17,5.17,0,0,0,.06,1A9.22,9.22,0,0,0,26,43.2a5.1,5.1,0,0,0,1.15.35,10.15,10.15,0,0,1-3.4.11c-.25,0-.34.07-.25.31,1.5,4.08,4.73,5.3,7.15,6,.32,0,.65,0,1,.13,0,0,0,0-.05.06-.81,1.22-3.59,2.13-4.88,2.59a17.5,17.5,0,0,1-7.42.94c-.4,0-.48,0-.59,0s0,.17.12.27c.5.33,1,.63,1.54.92a25,25,0,0,0,5,2c8.9,2.46,18.93.65,25.62-6C56.19,45.64,58,38.44,58,31.24c0-.28.33-.44.53-.59A17.12,17.12,0,0,0,62.05,27a1.11,1.11,0,0,0,.23-.7v0C62.28,26.18,62.28,26.21,62.1,26.29Z" transform="translate(0)"/></svg>